<svg width="248" height="52" viewBox="0 0 248 52" fill="none" xmlns="http://www.w3.org/2000/svg">
<path d="M26.94 51.2803H16.572L0.3 2.75227H10.164L16.14 22.0483C17.34 25.8883 18.42 29.5603 19.38 33.0643C20.34 36.5683 21.012 39.1123 21.396 40.6963L21.9 43.0723C23.052 37.6963 24.996 30.6883 27.732 22.0483L33.78 2.75227H43.5L26.94 51.2803ZM62.6064 45.1603C64.5264 45.1603 66.0144 44.6083 67.0704 43.5043C68.1744 42.3523 68.7264 40.8643 68.7264 39.0403V35.5843H64.2624C62.0064 35.5843 60.2784 36.0643 59.0784 37.0243C57.8784 37.9363 57.2784 39.1123 57.2784 40.5523C57.2784 43.6243 59.0544 45.1603 62.6064 45.1603ZM69.0864 46.8883C67.4064 50.0083 64.2384 51.5683 59.5824 51.5683C56.1264 51.5683 53.3664 50.5603 51.3024 48.5443C49.2864 46.5283 48.2784 43.9843 48.2784 40.9123C48.2784 37.4563 49.5744 34.7443 52.1664 32.7763C54.7584 30.8083 58.5024 29.8243 63.3984 29.8243H68.7264V27.5923C68.7264 25.5763 68.1984 24.0403 67.1424 22.9843C66.0864 21.9283 64.2864 21.4003 61.7424 21.4003C57.8544 21.4003 54.2784 22.4803 51.0144 24.6403V16.6483C53.7504 14.9683 57.6864 14.1283 62.8224 14.1283C72.7104 14.1283 77.6544 18.7363 77.6544 27.9523V51.2803H69.0864V46.8883ZM95.5706 51.2803H86.9306V0.376272H95.5706V51.2803ZM136.954 51.2803H128.314V28.8883C128.314 26.5843 127.714 24.7843 126.514 23.4883C125.362 22.1923 123.85 21.5443 121.978 21.5443C119.914 21.5443 118.042 22.3363 116.362 23.9203C114.73 25.5043 113.914 28.0963 113.914 31.6963V51.2803H105.274V0.376272H113.914V20.9683C115.882 16.5523 119.602 14.3443 125.074 14.3443C128.626 14.3443 131.482 15.4723 133.642 17.7283C135.85 19.9363 136.954 23.1523 136.954 27.3763V51.2803ZM158.513 45.1603C160.433 45.1603 161.921 44.6083 162.977 43.5043C164.081 42.3523 164.633 40.8643 164.633 39.0403V35.5843H160.169C157.913 35.5843 156.185 36.0643 154.985 37.0243C153.785 37.9363 153.185 39.1123 153.185 40.5523C153.185 43.6243 154.961 45.1603 158.513 45.1603ZM164.993 46.8883C163.313 50.0083 160.145 51.5683 155.489 51.5683C152.033 51.5683 149.273 50.5603 147.209 48.5443C145.193 46.5283 144.185 43.9843 144.185 40.9123C144.185 37.4563 145.481 34.7443 148.073 32.7763C150.665 30.8083 154.409 29.8243 159.305 29.8243H164.633V27.5923C164.633 25.5763 164.105 24.0403 163.049 22.9843C161.993 21.9283 160.193 21.4003 157.649 21.4003C153.761 21.4003 150.185 22.4803 146.921 24.6403V16.6483C149.657 14.9683 153.593 14.1283 158.729 14.1283C168.617 14.1283 173.561 18.7363 173.561 27.9523V51.2803H164.993V46.8883ZM191.477 51.2803H182.837V0.376272H191.477V51.2803ZM210.18 51.2803H201.54V0.376272H210.18V51.2803ZM232.411 45.1603C234.331 45.1603 235.819 44.6083 236.875 43.5043C237.979 42.3523 238.531 40.8643 238.531 39.0403V35.5843H234.067C231.811 35.5843 230.083 36.0643 228.883 37.0243C227.683 37.9363 227.083 39.1123 227.083 40.5523C227.083 43.6243 228.859 45.1603 232.411 45.1603ZM238.891 46.8883C237.211 50.0083 234.043 51.5683 229.387 51.5683C225.931 51.5683 223.171 50.5603 221.107 48.5443C219.091 46.5283 218.083 43.9843 218.083 40.9123C218.083 37.4563 219.379 34.7443 221.971 32.7763C224.563 30.8083 228.307 29.8243 233.203 29.8243H238.531V27.5923C238.531 25.5763 238.003 24.0403 236.947 22.9843C235.891 21.9283 234.091 21.4003 231.547 21.4003C227.659 21.4003 224.083 22.4803 220.819 24.6403V16.6483C223.555 14.9683 227.491 14.1283 232.627 14.1283C242.515 14.1283 247.459 18.7363 247.459 27.9523V51.2803H238.891V46.8883Z" fill="#F9F7F2"/>
<path d="M26.94 51.2803H16.572L0.3 2.75227H10.164L16.14 22.0483C17.34 25.8883 18.42 29.5603 19.38 33.0643C20.34 36.5683 21.012 39.1123 21.396 40.6963L21.9 43.0723C23.052 37.6963 24.996 30.6883 27.732 22.0483L33.78 2.75227H43.5L26.94 51.2803ZM62.6064 45.1603C64.5264 45.1603 66.0144 44.6083 67.0704 43.5043C68.1744 42.3523 68.7264 40.8643 68.7264 39.0403V35.5843H64.2624C62.0064 35.5843 60.2784 36.0643 59.0784 37.0243C57.8784 37.9363 57.2784 39.1123 57.2784 40.5523C57.2784 43.6243 59.0544 45.1603 62.6064 45.1603ZM69.0864 46.8883C67.4064 50.0083 64.2384 51.5683 59.5824 51.5683C56.1264 51.5683 53.3664 50.5603 51.3024 48.5443C49.2864 46.5283 48.2784 43.9843 48.2784 40.9123C48.2784 37.4563 49.5744 34.7443 52.1664 32.7763C54.7584 30.8083 58.5024 29.8243 63.3984 29.8243H68.7264V27.5923C68.7264 25.5763 68.1984 24.0403 67.1424 22.9843C66.0864 21.9283 64.2864 21.4003 61.7424 21.4003C57.8544 21.4003 54.2784 22.4803 51.0144 24.6403V16.6483C53.7504 14.9683 57.6864 14.1283 62.8224 14.1283C72.7104 14.1283 77.6544 18.7363 77.6544 27.9523V51.2803H69.0864V46.8883ZM95.5706 51.2803H86.9306V0.376272H95.5706V51.2803ZM136.954 51.2803H128.314V28.8883C128.314 26.5843 127.714 24.7843 126.514 23.4883C125.362 22.1923 123.85 21.5443 121.978 21.5443C119.914 21.5443 118.042 22.3363 116.362 23.9203C114.73 25.5043 113.914 28.0963 113.914 31.6963V51.2803H105.274V0.376272H113.914V20.9683C115.882 16.5523 119.602 14.3443 125.074 14.3443C128.626 14.3443 131.482 15.4723 133.642 17.7283C135.85 19.9363 136.954 23.1523 136.954 27.3763V51.2803ZM158.513 45.1603C160.433 45.1603 161.921 44.6083 162.977 43.5043C164.081 42.3523 164.633 40.8643 164.633 39.0403V35.5843H160.169C157.913 35.5843 156.185 36.0643 154.985 37.0243C153.785 37.9363 153.185 39.1123 153.185 40.5523C153.185 43.6243 154.961 45.1603 158.513 45.1603ZM164.993 46.8883C163.313 50.0083 160.145 51.5683 155.489 51.5683C152.033 51.5683 149.273 50.5603 147.209 48.5443C145.193 46.5283 144.185 43.9843 144.185 40.9123C144.185 37.4563 145.481 34.7443 148.073 32.7763C150.665 30.8083 154.409 29.8243 159.305 29.8243H164.633V27.5923C164.633 25.5763 164.105 24.0403 163.049 22.9843C161.993 21.9283 160.193 21.4003 157.649 21.4003C153.761 21.4003 150.185 22.4803 146.921 24.6403V16.6483C149.657 14.9683 153.593 14.1283 158.729 14.1283C168.617 14.1283 173.561 18.7363 173.561 27.9523V51.2803H164.993V46.8883ZM191.477 51.2803H182.837V0.376272H191.477V51.2803ZM210.18 51.2803H201.54V0.376272H210.18V51.2803ZM232.411 45.1603C234.331 45.1603 235.819 44.6083 236.875 43.5043C237.979 42.3523 238.531 40.8643 238.531 39.0403V35.5843H234.067C231.811 35.5843 230.083 36.0643 228.883 37.0243C227.683 37.9363 227.083 39.1123 227.083 40.5523C227.083 43.6243 228.859 45.1603 232.411 45.1603ZM238.891 46.8883C237.211 50.0083 234.043 51.5683 229.387 51.5683C225.931 51.5683 223.171 50.5603 221.107 48.5443C219.091 46.5283 218.083 43.9843 218.083 40.9123C218.083 37.4563 219.379 34.7443 221.971 32.7763C224.563 30.8083 228.307 29.8243 233.203 29.8243H238.531V27.5923C238.531 25.5763 238.003 24.0403 236.947 22.9843C235.891 21.9283 234.091 21.4003 231.547 21.4003C227.659 21.4003 224.083 22.4803 220.819 24.6403V16.6483C223.555 14.9683 227.491 14.1283 232.627 14.1283C242.515 14.1283 247.459 18.7363 247.459 27.9523V51.2803H238.891V46.8883Z" fill="url(#paint0_linear_2328_9522)"/>
<defs>
<linearGradient id="paint0_linear_2328_9522" x1="194" y1="-46" x2="221" y2="100.5" gradientUnits="userSpaceOnUse">
<stop stop-color="#FC0067"/>
<stop offset="0.165" stop-color="#DB0676"/>
<stop offset="1" stop-color="#501DB7"/>
</linearGradient>
</defs>
</svg>
