<svg width="185" height="71" viewBox="0 0 185 71" fill="none" xmlns="http://www.w3.org/2000/svg">
<path fill-rule="evenodd" clip-rule="evenodd" d="M24.9998 25H12.3086V30.5332C12.3086 32.5083 13.8642 34.1131 15.7651 34.1131H22.4008C24.7772 34.1131 26.7209 36.2646 26.7209 38.7344V43.9636C31.3247 43.1727 34.8497 39.1454 34.8497 34.4902C34.8497 29.2705 30.4165 25 24.9998 25Z" fill="#501DB7"/>
<path fill-rule="evenodd" clip-rule="evenodd" d="M20.1794 34.8043H13.5644C11.188 34.8043 9.24434 32.8153 9.24434 30.345V25.0078C4.1067 25.3113 0 29.4556 0 34.4794C0 39.699 4.43272 43.9705 9.85039 43.9705H23.636V38.3972C23.636 36.4211 22.0808 34.8043 20.1794 34.8043" fill="#FC0067"/>
</svg>
